HIERARCHY
ROOT hip
{
  OFFSET 0 0 0
  CHANNELS 6 Xposition Yposition Zposition Zrotation Yrotation Xrotation
  JOINT abdomen
  {
    OFFSET 0 20.6881 -0.73152
    CHANNELS 3 Zrotation Xrotation Yrotation
    JOINT chest
    {
      OFFSET 0 11.7043 -0.48768
      CHANNELS 3 Zrotation Xrotation Yrotation
      JOINT neck
      {
        OFFSET 0 22.1894 -2.19456
        CHANNELS 3 Zrotation Xrotation Yrotation
        JOINT head
        {
          OFFSET -0.24384 7.07133 1.2192
          CHANNELS 3 Zrotation Xrotation Yrotation
          JOINT leftEye
          {
            OFFSET 4.14528 8.04674 8.04672
            CHANNELS 3 Zrotation Xrotation Yrotation
            End Site
            {
              OFFSET 1 0 0
            }
          }
          JOINT rightEye
          {
            OFFSET -3.6576 8.04674 8.04672
            CHANNELS 3 Zrotation Xrotation Yrotation
            End Site
            {
              OFFSET 1 0 0
            }
          }
        }
      }
      JOINT rCollar
      {
        OFFSET -2.68224 19.2634 -4.8768
        CHANNELS 3 Zrotation Xrotation Yrotation
        JOINT rShldr
        {
          OFFSET -8.77824 -1.95073 1.46304
          CHANNELS 3 Zrotation Xrotation Yrotation
          JOINT rForeArm
          {
            OFFSET -28.1742 -1.7115 0.48768
            CHANNELS 3 Zrotation Xrotation Yrotation
            JOINT rHand
            {
              OFFSET -22.5879 0.773209 7.07136
              CHANNELS 3 Zrotation Xrotation Yrotation
              JOINT rThumb1
              {
                OFFSET -1.2192 -0.487915 3.41376
                CHANNELS 3 Zrotation Xrotation Yrotation
                JOINT rThumb2
                {
                  OFFSET -3.37035 -0.52449 3.41376
                  CHANNELS 3 Zrotation Xrotation Yrotation
                  End Site
                  {
                    OFFSET -1.78271 -1.18214 1.43049
                  }
                }
              }
              JOINT rIndex1
              {
                OFFSET -7.75947 0.938293 5.60832
                CHANNELS 3 Zrotation Xrotation Yrotation
                JOINT rIndex2
                {
                  OFFSET -2.54057 -0.884171 1.56538
                  CHANNELS 3 Zrotation Xrotation Yrotation
                  End Site
                  {
                    OFFSET -1.62519 -0.234802 1.16502
                  }
                }
              }
              JOINT rMid1
              {
                OFFSET -8.24714 1.18213 3.41376
                CHANNELS 3 Zrotation Xrotation Yrotation
                JOINT rMid2
                {
                  OFFSET -3.10165 -0.590103 1.0647
                  CHANNELS 3 Zrotation Xrotation Yrotation
                  End Site
                  {
                    OFFSET -2.48547 -0.328903 0.83742
                  }
                }
              }
              JOINT rRing1
              {
                OFFSET -8.82822 0.546677 1.51678
                CHANNELS 3 Zrotation Xrotation Yrotation
                JOINT rRing2
                {
                  OFFSET -2.60934 -0.819778 -0.0198488
                  CHANNELS 3 Zrotation Xrotation Yrotation
                  End Site
                  {
                    OFFSET -2.33842 -0.294052 0.168128
                  }
                }
              }
              JOINT rPinky1
              {
                OFFSET -8.27202 -0.0477905 -0.4584
                CHANNELS 3 Zrotation Xrotation Yrotation
                JOINT rPinky2
                {
                  OFFSET -1.82734 -0.647385 -0.700984
                  CHANNELS 3 Zrotation Xrotation Yrotation
                  End Site
                  {
                    OFFSET -1.69225 -0.51767 -0.607171
                  }
                }
              }
            }
          }
        }
      }
      JOINT lCollar
      {
        OFFSET 2.68224 19.2634 -4.8768
        CHANNELS 3 Zrotation Xrotation Yrotation
        JOINT lShldr
        {
          OFFSET 8.77824 -1.95073 1.46304
          CHANNELS 3 Zrotation Xrotation Yrotation
          JOINT lForeArm
          {
            OFFSET 28.1742 -1.7115 0.48768
            CHANNELS 3 Zrotation Xrotation Yrotation
            JOINT lHand
            {
              OFFSET 22.5879 0.773209 7.07136
              CHANNELS 3 Zrotation Xrotation Yrotation
              JOINT lThumb1
              {
                OFFSET 1.2192 -0.487915 3.41376
                CHANNELS 3 Zrotation Xrotation Yrotation
                JOINT lThumb2
                {
                  OFFSET 3.37035 -0.52449 3.41376
                  CHANNELS 3 Zrotation Xrotation Yrotation
                  End Site
                  {
                    OFFSET 1.78271 -1.18214 1.43049
                  }
                }
              }
              JOINT lIndex1
              {
                OFFSET 7.75947 0.938293 5.60832
                CHANNELS 3 Zrotation Xrotation Yrotation
                JOINT lIndex2
                {
                  OFFSET 2.54057 -0.884171 1.56538
                  CHANNELS 3 Zrotation Xrotation Yrotation
                  End Site
                  {
                    OFFSET 1.62519 -0.234802 1.16502
                  }
                }
              }
              JOINT lMid1
              {
                OFFSET 8.24714 1.18213 3.41376
                CHANNELS 3 Zrotation Xrotation Yrotation
                JOINT lMid2
                {
                  OFFSET 3.10165 -0.590103 1.0647
                  CHANNELS 3 Zrotation Xrotation Yrotation
                  End Site
                  {
                    OFFSET 2.48547 -0.328903 0.83742
                  }
                }
              }
              JOINT lRing1
              {
                OFFSET 8.82822 0.546677 1.51678
                CHANNELS 3 Zrotation Xrotation Yrotation
                JOINT lRing2
                {
                  OFFSET 2.60934 -0.819778 -0.0198488
                  CHANNELS 3 Zrotation Xrotation Yrotation
                  End Site
                  {
                    OFFSET 2.33842 -0.294052 0.168128
                  }
                }
              }
              JOINT lPinky1
              {
                OFFSET 8.27202 -0.0477905 -0.4584
                CHANNELS 3 Zrotation Xrotation Yrotation
                JOINT lPinky2
                {
                  OFFSET 1.82734 -0.647385 -0.700984
                  CHANNELS 3 Zrotation Xrotation Yrotation
                  End Site
                  {
                    OFFSET 1.69225 -0.51767 -0.607171
                  }
                }
              }
            }
          }
        }
      }
    }
  }
  JOINT rButtock
  {
    OFFSET -8.77824 4.35084 1.2192
    CHANNELS 3 Zrotation Xrotation Yrotation
    JOINT rThigh
    {
      OFFSET 0 -1.70687 -2.19456
      CHANNELS 3 Zrotation Xrotation Yrotation
      JOINT rShin
      {
        OFFSET 0 -36.8199 0.73152
        CHANNELS 3 Zrotation Xrotation Yrotation
        JOINT rFoot
        {
          OFFSET 0.73152 -45.1104 -5.12064
          CHANNELS 3 Zrotation Xrotation Yrotation
          End Site
          {
            OFFSET -1.1221 -3.69964 12.103
          }
        }
      }
    }
  }
  JOINT lButtock
  {
    OFFSET 8.77824 4.35084 1.2192
    CHANNELS 3 Zrotation Xrotation Yrotation
    JOINT lThigh
    {
      OFFSET 0 -1.70687 -2.19456
      CHANNELS 3 Zrotation Xrotation Yrotation
      JOINT lShin
      {
        OFFSET 0 -36.8199 0.73152
        CHANNELS 3 Zrotation Xrotation Yrotation
        JOINT lFoot
        {
          OFFSET -0.73152 -45.1104 -5.12064
          CHANNELS 3 Zrotation Xrotation Yrotation
          End Site
          {
            OFFSET 1.1221 -3.69964 12.103
          }
        }
      }
    }
  }
}
MOTION
Frames:	4
Frame Time:	0.03333
0.03916453570127487 61.81463003158569 -0.0012573087587952614 -6.444138340387168 5.236504972955084 2.513781328027612 -2.3501509129684397 14.762871617355819 3.8962737280709576 2.5929910318322498 -9.713337523401131 1.2265869289354576 -4.858295200496675 15.28894644760854 -3.4845129991923884 8.45926954178354 -24.926529489151413 -5.169026545936766 0.011833062613209083 0.017548516885908153 -0.0034533676567422475 -0.0038123127739249293 -0.014342490122527635 0.0181871128928779 0.05872369864752178 -0.06480515501019833 0.027004183415116862 49.29057923977394 30.1332817311951 15.789703474155317 -23.872651790785955 -29.474984683894686 66.45797285065585 -4.720541810881743 -11.25577438422937 -5.136417088405009 0.0030371930248342636 -0.03744229661721654 0.022831268002516333 0.026680106280244965 -0.0003333986088612474 -0.019114231031427793 -0.07170567378432105 0.018817384606796692 0.0190359506602371 7.68554229750991 5.431118406749904 0.41457850207631664 0.023785813619452062 -0.0044310585436193265 -0.002339339790729367 2.9135604109980977 0.9613275678947268 0.08208441303241988 -0.03728920433027305 -0.00903415247695835 0.02663869825840176 10.215808073655937 0.7035563353401514 0.03582204768004258 -0.02515617368253876 0.02142854458215141 -0.008249881341596925 2.16051135099327 -0.7364521805693724 -0.2145912835498573 -0.00802675293523436 -0.0038590035202043134 -0.0037598056946804566 -58.42735744344584 32.160898518394255 -25.671598967214962 23.00754344560673 -27.443421754902555 -62.422779051282355 5.091694717267059 -13.622591172216053 4.107881099407592 -0.006561037028031936 0.027797856065746973 -0.008436297481170672 -0.025434770695481234 -0.008339687657012014 -0.008879992972957046 -0.015428650283118335 0.006077561020415526 -0.007164815078490485 -7.698537586179506 5.482058384466682 -0.4276979347701624 0.01507625521062799 -0.04652890281256647 0.0001962078560791944 -2.8954849556898936 0.9478018723473975 -0.09539130240247078 0.0030274813496081517 -0.002572313274450271 -0.054938333104306666 -10.222689489244724 0.7071508291125764 -0.04379869477441255 -0.021042425450634127 -0.016605870739167056 -0.0215706978942523 -2.2398836986775192 -0.7234178317554609 0.18266236365544264 -0.042900044650879855 0.010354726864298003 0.005346117129415918 -31.80187303976712 -35.67812833715442 -27.743029710392456 -5.354948564012744 62.139749672455366 6.3186541049556935 -4.74780877982208 -10.183707038330523 -10.377074816375462 0.015633289153954264 0.03266313854976457 0.06664236917522598 37.717028596862434 -34.246295290877136 31.05573975974034 5.407680612613005 63.34321534383327 -6.5744481044672565 5.0123035865625925 -10.125345633193703 13.913745914834417
0.06120717152953148 62.78476119041443 -0.07894965820014477 -6.857898393701847 5.330380800455032 1.8863057228002922 -2.4529868814423863 14.883876956239057 3.8481580335759795 2.607520338300748 -9.786149901274406 1.1703487521351594 -4.967246963042133 15.428736514256606 -3.556130947734557 8.431637157722607 -24.908330450107915 -5.205606477810416 -0.015267447146535456 0.00877503217532099 -0.02963999276945379 -0.016804079627229653 0.043414603355305115 0.0014897282910032498 0.07664524791577576 -0.09854548909726796 0.05786142728544733 49.35419562170344 30.21057556693755 16.300019350445528 -24.0873604948926 -29.486616496051216 66.43997530219286 -4.871506920785595 -11.57185504845005 -5.316073261691147 0.03610694127362616 -0.12266310049999454 0.0549504726983393 0.04860485343342722 0.026553427615482385 -0.003429555376139762 -0.1083263733495791 0.05998752376781214 0.01293557787521079 7.838737464177773 5.463045699138305 0.3792619417557079 0.07608830735394205 -0.003476272802845591 -0.04265981409116581 2.9352846814269693 0.943388716369923 0.06142213029777928 -0.03158186090721337 -0.020717778021646958 -0.026632828564583783 10.42860090970039 0.7531143736887657 0.09082014493958686 -0.013537701739229725 0.05256364174853719 -0.07762459298909245 2.1712567326615813 -0.7369408592601456 -0.21956723644277026 -0.003780402983896276 -0.05436328987312977 0.01868014049316175 -58.723821804370246 32.415183046099244 -25.448885281401065 23.20551306360496 -27.536447223850836 -62.46363724289737 4.897816809468485 -13.396527278614263 4.282385175625425 0.0004210171293078172 0.05893999686471433 -0.017212236790990806 0.004281247949128618 0.040105883630536396 0.00974337157272897 -0.020499532133323894 0.02777877956083854 0.0392023509889642 -7.780288120355388 5.584562875322471 -0.4217543895317819 0.06836133569024777 -0.08992739119029859 -0.019930331915538536 -2.9011294667086744 0.9495683300214921 -0.1290522889012919 0.017349907791448873 -0.04834023696394212 -0.030862609971099297 -10.34856987564806 0.6870900832725729 -0.014921828902362232 -0.02466896241522 -0.0435176431622371 0.0032338811285894747 -2.2748316422263586 -0.6672267725882651 0.18296321214404054 -0.04350259540172192 0.014204979204628237 -0.038715299804204115 -31.56105423001081 -35.66856265722181 -27.120230863755893 -4.830877113620952 62.036606985799004 5.797559336381557 -4.848144258729567 -10.246555023978395 -10.337937832431288 -0.00467094225778958 0.03410382154685463 0.07951855642116938 37.9164018187351 -34.18812598481072 30.652051674130494 5.286054580288941 63.32589398409812 -6.475320288382392 4.97873192613151 -10.037673325007418 13.86201662338168
0.1285823993384838 63.96297216415405 0.38480409421026707 -5.072233373887577 -38.18383446059237 13.469620548017154 -1.450871985145282 15.257466105723951 10.711748963064208 0.5576631745035617 -10.215833686865324 2.903123455059495 -2.1778467979935856 10.68564654137736 6.141651460162105 3.4323514848312358 -25.497789435858355 12.804053618118909 -0.23524334768116933 -0.20556089301302774 0.04042019239427599 0.07835742426226722 -0.18549038213694527 0.005549341937650242 -0.012947890892015325 -0.5392631784880763 0.3729644806605297 -5.241227621879324 55.589796333899066 83.4212052770569 -27.821469310368176 -32.68634838633792 74.97112746234892 -7.2389093974936065 -4.746477746707574 -0.335889706917598 0.28351336176270725 0.05914799746928237 -0.04247080995022687 0.15480207539181354 0.23903434279436442 0.014642431476626397 -0.3376053650597406 0.27242839162659965 -0.11342484276072917 8.145635792833017 5.732660586435388 0.3624649591219127 0.06206443488402493 0.01775344924143498 0.0451313820753584 2.952742644945522 1.032174772277742 0.12553946391421617 0.20115456722472327 -0.3203434493147085 -0.0818772128406452 10.235755641126959 0.49972150583557995 -0.04455617876162283 0.010053771653994317 0.1658152218199302 0.134436278896047 1.9095951737661547 -0.6389835134834393 -0.26047542717694516 -0.33975420660565003 -0.28950274397372083 0.3273861214009321 -2.3184321547931352 16.764214374365228 -86.83685993757523 29.97989275790954 -44.272456332038495 -93.34562040524717 -0.19359182692601343 -11.720132478915504 6.339017460192441 0.07145669204473293 -0.04365787548363392 0.19588539644517577 -0.23530545971393413 -0.04712902564460201 0.04996133967476233 0.20865187377757585 0.04068500896695943 0.3426574105288757 -8.102404110481421 5.477827936049505 -0.2622812918408995 0.4640765094654288 -0.045270547179697404 -0.2008552128400063 -3.1892580086379003 0.6687264259979061 -0.2029880194496221 0.11400274079753572 0.2620413814463028 -0.05235881611471614 -10.589556025039034 0.5149391139455155 0.6008699906977103 0.00655215244602563 0.32773051234548883 0.04957095167501379 -2.7269195155119754 -0.3791478562522275 0.09658042232871412 0.31949645249677405 0.04108705631306459 0.5946660444972232 -12.942322260129353 -11.386071341704765 -7.006773892606499 3.074473904871486 50.77762412020702 -3.5098897132799247 -4.548380489549224 -7.799095900008664 -19.774476817075776 0.14650718417080327 -0.11917858344537734 0.024616855542372206 71.49667853345512 -53.4923476926257 67.0581347428357 1.5072204054676526 71.83913738825039 1.332776840456998 2.554838235458793 2.3592504324901893 20.2620584087136
-0.3401699475944042 57.07252025604248 0.625216425396502 -13.34141192088049 -42.5809907199361 12.036969586586762 1.0253439427774944 13.323786617727274 9.570347513126915 1.8110212433342958 -9.807495096204343 2.057896723337114 -1.1440437726507362 10.351515394727627 6.307647681995041 5.032680602177679 -24.154048754401312 12.55096010465044 0.4117927987511563 0.5547300885027172 0.1073493761537896 -0.05608524459591345 -0.7128766087103098 0.3243697124282988 0.09916678284768789 -0.4417676708931391 0.9858681174174653 28.173326505461382 63.199398880669484 38.321718904462 -25.312932073519253 -39.805468218620554 82.30316478162835 -12.176951752305236 -22.00372932631017 -6.798744686621305 -0.17913750579604004 0.10488027610904321 -0.035567569772606715 0.26250930276530154 0.28465288277618866 0.2891648096923639 -0.2473723762649368 0.7763965675786351 -0.3103022174611435 8.595559136481974 4.939276484617285 0.7466875392057539 -0.1384568457385912 0.33688912901181484 0.049506518445148244 3.293759049165449 0.7966091250451126 -0.30946461215331783 -0.027898414593019543 0.4135868973470483 -0.4536197566504037 9.708943150443876 0.4865883327221148 0.700005490745391 -0.240811766123728 -0.04765988608958538 -0.6141590308624693 2.2961710741841825 -0.5319656549684465 0.5101389317020245 0.3421482946314453 -0.17112724136434893 0.1382652802767135 -24.714453822969812 26.014175642773417 -58.97963287935474 25.761504747259842 -39.400424340460454 -87.8882514470828 -1.7856723836119688 -5.969636134123096 -1.6372398865080153 0.2720251970221574 -0.4005267752411905 -0.8143366675924691 -0.02003966830311163 0.5539731648044623 0.2925141637066089 0.681166281549762 -0.05895331039751057 -0.008579197845212033 -7.8591196024347365 6.353987527305816 -0.5354788268010661 0.477766823243926 0.1640949212835861 -0.2563540750235036 -2.7834348485821883 0.8481178227320002 -0.40043982373140513 0.31042628144411444 -0.1536569514887786 -0.27460410036193966 -9.610410841477272 0.7882294967897119 -0.06560001827485856 0.3281908297429507 0.27286237544315994 0.0011941091659886354 -2.3741711941754935 -0.32114364866465783 -0.05687290414543344 0.2644429933523556 -0.1422779630532431 -0.21725999320505465 -10.219093394646713 6.371818589907781 -0.051645835078816725 3.877138953111167 35.40044016625838 -2.9899637608275067 0.11092920903188287 -1.556662117156965 -20.51796169125188 0.2680406620955276 0.08886761797146235 0.054420065820605504 76.3293447297518 -49.6045459604465 69.62828028599813 -1.358249710801443 69.08741809619234 2.2501516074341636 1.7155333844685194 2.5549225456063605 22.816933356439183
